<svg xmlns="http://www.w3.org/2000/svg" xmlns:xlink="http://www.w3.org/1999/xlink" width="299.55999755859375" height="368.81005859375" viewBox="0 0 299.55999755859375 368.81005859375" fill="none">
<g filter="url(#filter_1_48)">
<path d="M51 146.591L62.3 165.81L62.3 147.184L51 128L51 146.591Z" fill-rule="evenodd"  fill="#D43030" >
</path>
</g>
<g filter="url(#filter_1_33)">
<path d="M7 121.718L7 165.68L16.432 165.68L16.432 134.576L34.72 165.68L44.7805 165.68L44.7805 153L44.7 153L44.7 116L34.72 116L34.72 147.032L16.4542 116.038L7 121.718Z" fill-rule="evenodd"  fill="#0077FF" >
</path>
</g>
<g filter="url(#filter_1_83)">
<path d="M94 121.718L94 165.68L103.432 165.68L103.432 134.576L121.72 165.68L131.781 165.68L131.781 153L131.7 153L131.7 116L121.72 116L121.72 147.032L103.454 116.038L94 121.718ZM149.3 165.81L138 146.591L138 128L149.3 147.184L149.3 165.81Z" fill-rule="evenodd"  fill="#000000" >
</path>
</g>
<g filter="url(#filter_1_84)">
<path d="M179 121.718L179 165.68L188.432 165.68L188.432 134.576L206.72 165.68L216.781 165.68L216.781 153L216.7 153L216.7 116L206.72 116L206.72 147.032L188.454 116.038L179 121.718ZM234.3 165.81L223 146.591L223 128L234.3 147.184L234.3 165.81Z" fill-rule="evenodd"  fill="#FFFFFF" >
</path>
</g>
<g filter="url(#filter_1_120)">
<path d="M7 227.718L7 271.68L16.432 271.68L16.432 240.576L34.72 271.68L44.7805 271.68L44.7805 259L44.7 259L44.7 222L34.72 222L34.72 253.032L16.4542 222.038L7 227.718Z" fill-rule="evenodd"  fill="#000000" >
</path>
</g>
<g filter="url(#filter_1_128)">
<path d="M8 318.718L8 362.68L17.432 362.68L17.432 331.576L35.72 362.68L45.7805 362.68L45.7805 350L45.7 350L45.7 313L35.72 313L35.72 344.032L17.4542 313.038L8 318.718Z" fill-rule="evenodd"  fill="#000000" >
</path>
</g>
<g filter="url(#filter_1_125)">
<path d="M108.3 362.81L97 343.591L97 325L108.3 344.184L108.3 362.81Z" fill-rule="evenodd"  fill="#D43030" >
</path>
</g>
<g filter="url(#filter_1_135)">
<path d="M124.72 222L124.72 253.032L106.454 222.038L97 227.718L97 271.68L106.432 271.68L106.432 240.576L124.72 271.68L134.781 271.68L134.781 259L134.7 259L134.7 242.183L143.3 256.81L143.3 256.503L152.3 271.81L152.3 253.184L141 234L141 234.28L134.7 223.584L134.7 222L124.72 222Z" fill-rule="evenodd"  fill="#D43030" >
</path>
</g>
<g >
<g filter="url(#filter_1_136)">
<path     fill="#0077FF"  d="M41.4 10.152L41.4 59.832L31.968 59.832L13.68 28.8L13.68 59.832L4.248 59.832L4.248 10.152L13.68 10.152L31.968 41.256L31.968 10.152L41.4 10.152ZM57.744 43.776L57.744 44.784Q57.744 48.96 59.616 50.76Q61.488 52.56 64.944 52.56Q67.608 52.56 69.12 51.444Q70.632 50.328 70.776 48.312L70.848 48.096L79.344 48.096L79.344 48.456Q79.344 53.784 75.384 57.024Q71.424 60.264 64.584 60.264Q57.384 60.264 53.136 56.124Q48.888 51.984 48.888 43.344L48.888 38.808Q48.888 30.384 52.992 26.172Q57.096 21.96 64.296 21.96Q71.352 21.96 75.492 26.208Q79.632 30.456 79.632 38.808L79.632 43.776L57.744 43.776ZM64.296 29.592Q61.128 29.592 59.436 31.392Q57.744 33.192 57.744 37.44L57.744 37.656L70.704 37.656L70.704 36.72Q70.704 29.592 64.296 29.592ZM98.712 28.656L98.712 48.456Q98.712 52.272 102.384 52.272L105.192 52.272L105.192 59.832L100.944 59.832Q95.832 59.832 92.844 56.916Q89.856 54 89.856 49.032L89.856 28.656L84.672 28.656L84.672 22.392L89.856 22.392L89.856 15.048L98.712 11.952L98.712 22.392L105.912 22.392L105.912 28.656L98.712 28.656Z">
</path>
<path     fill="#D43030"  d="M156.672 10.152L156.672 59.832L147.24 59.832L147.24 30.384L137.808 50.256L131.472 50.256L121.896 30.168L121.896 59.832L112.464 59.832L112.464 10.152L121.896 10.152L134.64 37.584L147.24 10.152L156.672 10.152ZM179.352 60.264Q172.296 60.264 168.228 56.448Q164.16 52.632 164.16 44.568L164.16 37.584Q164.16 29.592 168.228 25.776Q172.296 21.96 179.352 21.96Q186.336 21.96 190.368 25.776Q194.4 29.592 194.4 37.584L194.4 44.568Q194.4 52.632 190.368 56.448Q186.336 60.264 179.352 60.264ZM179.352 52.344Q185.544 52.344 185.544 44.496L185.544 37.728Q185.544 29.88 179.352 29.88Q173.016 29.88 173.016 37.728L173.016 44.496Q173.016 52.344 179.352 52.344ZM216.36 60.264Q201.528 60.264 201.528 44.712L201.528 22.392L210.456 22.392L210.456 44.28Q210.456 48.24 211.644 50.292Q212.832 52.344 216.36 52.344Q219.888 52.344 221.076 50.4Q222.264 48.456 222.264 44.28L222.264 22.392L231.192 22.392L231.192 44.712Q231.192 52.488 227.52 56.376Q223.848 60.264 216.36 60.264ZM238.968 22.392L247.68 22.392L247.68 25.776Q249.336 23.904 251.676 22.932Q254.016 21.96 256.536 21.96Q262.296 21.96 265.464 25.56Q268.632 29.16 268.632 35.424L268.632 59.832L259.704 59.832L259.704 36.504Q259.704 33.336 258.12 31.608Q256.536 29.88 253.872 29.88Q251.28 29.88 249.588 31.608Q247.896 33.336 247.896 36.504L247.896 59.832L238.968 59.832L238.968 22.392ZM288.36 28.656L288.36 48.456Q288.36 52.272 292.032 52.272L294.84 52.272L294.84 59.832L290.592 59.832Q285.48 59.832 282.492 56.916Q279.504 54 279.504 49.032L279.504 28.656L274.32 28.656L274.32 22.392L279.504 22.392L279.504 15.048L288.36 11.952L288.36 22.392L295.56 22.392L295.56 28.656L288.36 28.656Z">
</path>
</g>
</g>
<defs>
<filter id="filter_1_48" x="47" y="126" width="19.300048828125" height="45.81005859375" filterUnits="userSpaceOnUse" color-interpolation-filters="sRGB">
<feFlood flood-opacity="0" result="feFloodId_1_48"/>
<feColorMatrix in="SourceAlpha" type="matrix" values="0 0 0 0 0 0 0 0 0 0 0 0 0 0 0 0 0 0 127 0" result="hardAlpha_1_48"/>
<feOffset dx="0" dy="2"/>
<feGaussianBlur stdDeviation="2"/>
<feComposite in2="hardAlpha_1_48" operator="out"/>
<feColorMatrix type="matrix" values="0 0 0 0 0 0 0 0 0 0 0 0 0 0 0 0 0 0 0.25 0"/>
<feBlend mode="normal" in2="feFloodId_1_48" result="dropShadow_1_1_48"/>
<feBlend mode="normal" in="SourceGraphic" in2="dropShadow_1_1_48" result="shape_1_48"/>
</filter>
<filter id="filter_1_33" x="3" y="114" width="45.780517578125" height="57.68017578125" filterUnits="userSpaceOnUse" color-interpolation-filters="sRGB">
<feFlood flood-opacity="0" result="feFloodId_1_33"/>
<feColorMatrix in="SourceAlpha" type="matrix" values="0 0 0 0 0 0 0 0 0 0 0 0 0 0 0 0 0 0 127 0" result="hardAlpha_1_33"/>
<feOffset dx="0" dy="2"/>
<feGaussianBlur stdDeviation="2"/>
<feComposite in2="hardAlpha_1_33" operator="out"/>
<feColorMatrix type="matrix" values="0 0 0 0 0 0 0 0 0 0 0 0 0 0 0 0 0 0 0.25 0"/>
<feBlend mode="normal" in2="feFloodId_1_33" result="dropShadow_1_1_33"/>
<feBlend mode="normal" in="SourceGraphic" in2="dropShadow_1_1_33" result="shape_1_33"/>
</filter>
<filter id="filter_1_83" x="90" y="114" width="63.300048828125" height="57.81005859375" filterUnits="userSpaceOnUse" color-interpolation-filters="sRGB">
<feFlood flood-opacity="0" result="feFloodId_1_83"/>
<feColorMatrix in="SourceAlpha" type="matrix" values="0 0 0 0 0 0 0 0 0 0 0 0 0 0 0 0 0 0 127 0" result="hardAlpha_1_83"/>
<feOffset dx="0" dy="2"/>
<feGaussianBlur stdDeviation="2"/>
<feComposite in2="hardAlpha_1_83" operator="out"/>
<feColorMatrix type="matrix" values="0 0 0 0 0 0 0 0 0 0 0 0 0 0 0 0 0 0 0.25 0"/>
<feBlend mode="normal" in2="feFloodId_1_83" result="dropShadow_1_1_83"/>
<feBlend mode="normal" in="SourceGraphic" in2="dropShadow_1_1_83" result="shape_1_83"/>
</filter>
<filter id="filter_1_84" x="175" y="114" width="63.29998779296875" height="57.81005859375" filterUnits="userSpaceOnUse" color-interpolation-filters="sRGB">
<feFlood flood-opacity="0" result="feFloodId_1_84"/>
<feColorMatrix in="SourceAlpha" type="matrix" values="0 0 0 0 0 0 0 0 0 0 0 0 0 0 0 0 0 0 127 0" result="hardAlpha_1_84"/>
<feOffset dx="0" dy="2"/>
<feGaussianBlur stdDeviation="2"/>
<feComposite in2="hardAlpha_1_84" operator="out"/>
<feColorMatrix type="matrix" values="0 0 0 0 0 0 0 0 0 0 0 0 0 0 0 0 0 0 0.25 0"/>
<feBlend mode="normal" in2="feFloodId_1_84" result="dropShadow_1_1_84"/>
<feBlend mode="normal" in="SourceGraphic" in2="dropShadow_1_1_84" result="shape_1_84"/>
</filter>
<filter id="filter_1_120" x="3" y="220" width="45.780517578125" height="57.68017578125" filterUnits="userSpaceOnUse" color-interpolation-filters="sRGB">
<feFlood flood-opacity="0" result="feFloodId_1_120"/>
<feColorMatrix in="SourceAlpha" type="matrix" values="0 0 0 0 0 0 0 0 0 0 0 0 0 0 0 0 0 0 127 0" result="hardAlpha_1_120"/>
<feOffset dx="0" dy="2"/>
<feGaussianBlur stdDeviation="2"/>
<feComposite in2="hardAlpha_1_120" operator="out"/>
<feColorMatrix type="matrix" values="0 0 0 0 0 0 0 0 0 0 0 0 0 0 0 0 0 0 0.25 0"/>
<feBlend mode="normal" in2="feFloodId_1_120" result="dropShadow_1_1_120"/>
<feBlend mode="normal" in="SourceGraphic" in2="dropShadow_1_1_120" result="shape_1_120"/>
</filter>
<filter id="filter_1_128" x="4" y="311" width="45.780517578125" height="57.68017578125" filterUnits="userSpaceOnUse" color-interpolation-filters="sRGB">
<feFlood flood-opacity="0" result="feFloodId_1_128"/>
<feColorMatrix in="SourceAlpha" type="matrix" values="0 0 0 0 0 0 0 0 0 0 0 0 0 0 0 0 0 0 127 0" result="hardAlpha_1_128"/>
<feOffset dx="0" dy="2"/>
<feGaussianBlur stdDeviation="2"/>
<feComposite in2="hardAlpha_1_128" operator="out"/>
<feColorMatrix type="matrix" values="0 0 0 0 0 0 0 0 0 0 0 0 0 0 0 0 0 0 0.25 0"/>
<feBlend mode="normal" in2="feFloodId_1_128" result="dropShadow_1_1_128"/>
<feBlend mode="normal" in="SourceGraphic" in2="dropShadow_1_1_128" result="shape_1_128"/>
</filter>
<filter id="filter_1_125" x="93" y="323" width="19.300048828125" height="45.81005859375" filterUnits="userSpaceOnUse" color-interpolation-filters="sRGB">
<feFlood flood-opacity="0" result="feFloodId_1_125"/>
<feColorMatrix in="SourceAlpha" type="matrix" values="0 0 0 0 0 0 0 0 0 0 0 0 0 0 0 0 0 0 127 0" result="hardAlpha_1_125"/>
<feOffset dx="0" dy="2"/>
<feGaussianBlur stdDeviation="2"/>
<feComposite in2="hardAlpha_1_125" operator="out"/>
<feColorMatrix type="matrix" values="0 0 0 0 0 0 0 0 0 0 0 0 0 0 0 0 0 0 0.25 0"/>
<feBlend mode="normal" in2="feFloodId_1_125" result="dropShadow_1_1_125"/>
<feBlend mode="normal" in="SourceGraphic" in2="dropShadow_1_1_125" result="shape_1_125"/>
</filter>
<filter id="filter_1_135" x="93" y="220" width="63.300048828125" height="57.81005859375" filterUnits="userSpaceOnUse" color-interpolation-filters="sRGB">
<feFlood flood-opacity="0" result="feFloodId_1_135"/>
<feColorMatrix in="SourceAlpha" type="matrix" values="0 0 0 0 0 0 0 0 0 0 0 0 0 0 0 0 0 0 127 0" result="hardAlpha_1_135"/>
<feOffset dx="0" dy="2"/>
<feGaussianBlur stdDeviation="2"/>
<feComposite in2="hardAlpha_1_135" operator="out"/>
<feColorMatrix type="matrix" values="0 0 0 0 0 0 0 0 0 0 0 0 0 0 0 0 0 0 0.25 0"/>
<feBlend mode="normal" in2="feFloodId_1_135" result="dropShadow_1_1_135"/>
<feBlend mode="normal" in="SourceGraphic" in2="dropShadow_1_1_135" result="shape_1_135"/>
</filter>
<filter id="filter_1_136" x="0.248046875" y="8.15185546875" width="299.31195068359375" height="58.1123046875" filterUnits="userSpaceOnUse" color-interpolation-filters="sRGB">
<feFlood flood-opacity="0" result="feFloodId_1_136"/>
<feColorMatrix in="SourceAlpha" type="matrix" values="0 0 0 0 0 0 0 0 0 0 0 0 0 0 0 0 0 0 127 0" result="hardAlpha_1_136"/>
<feOffset dx="0" dy="2"/>
<feGaussianBlur stdDeviation="2"/>
<feComposite in2="hardAlpha_1_136" operator="out"/>
<feColorMatrix type="matrix" values="0 0 0 0 0 0 0 0 0 0 0 0 0 0 0 0 0 0 0.25 0"/>
<feBlend mode="normal" in2="feFloodId_1_136" result="dropShadow_1_1_136"/>
<feBlend mode="normal" in="SourceGraphic" in2="dropShadow_1_1_136" result="shape_1_136"/>
</filter>
</defs>
</svg>
