<svg xmlns="http://www.w3.org/2000/svg" xmlns:xlink="http://www.w3.org/1999/xlink" width="299.31201171875" height="58.1123046875" viewBox="0 0 299.31201171875 58.1123046875" fill="none">
<g >
<g filter="url(#filter_1_140)">
<path     fill="#FFFFFF"  d="M41.152 2.00014L41.152 51.6801L31.72 51.6801L13.432 20.6481L13.432 51.6801L4.00001 51.6801L4.00001 2.00014L13.432 2.00014L31.72 33.1041L31.72 2.00014L41.152 2.00014ZM57.496 35.6241L57.496 36.6321Q57.496 40.8081 59.368 42.6081Q61.24 44.4081 64.696 44.4081Q67.36 44.4081 68.872 43.2921Q70.384 42.1761 70.528 40.1601L70.6 39.9441L79.096 39.9441L79.096 40.3041Q79.096 45.6321 75.136 48.8721Q71.176 52.1121 64.336 52.1121Q57.136 52.1121 52.888 47.9721Q48.64 43.8321 48.64 35.1921L48.64 30.6561Q48.64 22.2321 52.744 18.0201Q56.848 13.8081 64.048 13.8081Q71.104 13.8081 75.244 18.0561Q79.384 22.3041 79.384 30.6561L79.384 35.6241L57.496 35.6241ZM64.048 21.4401Q60.88 21.4401 59.188 23.2401Q57.496 25.0401 57.496 29.2881L57.496 29.5041L70.456 29.5041L70.456 28.5681Q70.456 21.4401 64.048 21.4401ZM98.464 20.5041L98.464 40.3041Q98.464 44.1201 102.136 44.1201L104.944 44.1201L104.944 51.6801L100.696 51.6801Q95.584 51.6801 92.596 48.7641Q89.608 45.8481 89.608 40.8801L89.608 20.5041L84.424 20.5041L84.424 14.2401L89.608 14.2401L89.608 6.89614L98.464 3.80014L98.464 14.2401L105.664 14.2401L105.664 20.5041L98.464 20.5041ZM156.424 2.00014L156.424 51.6801L146.992 51.6801L146.992 22.2321L137.56 42.1041L131.224 42.1041L121.648 22.0161L121.648 51.6801L112.216 51.6801L112.216 2.00014L121.648 2.00014L134.392 29.4321L146.992 2.00014L156.424 2.00014ZM179.104 52.1121Q172.048 52.1121 167.98 48.2961Q163.912 44.4801 163.912 36.4161L163.912 29.4321Q163.912 21.4401 167.98 17.6241Q172.048 13.8081 179.104 13.8081Q186.088 13.8081 190.12 17.6241Q194.152 21.4401 194.152 29.4321L194.152 36.4161Q194.152 44.4801 190.12 48.2961Q186.088 52.1121 179.104 52.1121ZM179.104 44.1921Q185.296 44.1921 185.296 36.3441L185.296 29.5761Q185.296 21.7281 179.104 21.7281Q172.768 21.7281 172.768 29.5761L172.768 36.3441Q172.768 44.1921 179.104 44.1921ZM216.112 52.1121Q201.28 52.1121 201.28 36.5601L201.28 14.2401L210.208 14.2401L210.208 36.1281Q210.208 40.0881 211.396 42.1401Q212.584 44.1921 216.112 44.1921Q219.64 44.1921 220.828 42.2481Q222.016 40.3041 222.016 36.1281L222.016 14.2401L230.944 14.2401L230.944 36.5601Q230.944 44.3361 227.272 48.2241Q223.6 52.1121 216.112 52.1121ZM238.72 14.2401L247.432 14.2401L247.432 17.6241Q249.088 15.7521 251.428 14.7801Q253.768 13.8081 256.288 13.8081Q262.048 13.8081 265.216 17.4081Q268.384 21.0081 268.384 27.2721L268.384 51.6801L259.456 51.6801L259.456 28.3521Q259.456 25.1841 257.872 23.4561Q256.288 21.7281 253.624 21.7281Q251.032 21.7281 249.34 23.4561Q247.648 25.1841 247.648 28.3521L247.648 51.6801L238.72 51.6801L238.72 14.2401ZM288.112 20.5041L288.112 40.3041Q288.112 44.1201 291.784 44.1201L294.592 44.1201L294.592 51.6801L290.344 51.6801Q285.232 51.6801 282.244 48.7641Q279.256 45.8481 279.256 40.8801L279.256 20.5041L274.072 20.5041L274.072 14.2401L279.256 14.2401L279.256 6.89614L288.112 3.80014L288.112 14.2401L295.312 14.2401L295.312 20.5041L288.112 20.5041Z">
</path>
</g>
</g>
<defs>
<filter id="filter_1_140" x="0" y="0" width="299.31201171875" height="58.1123046875" filterUnits="userSpaceOnUse" color-interpolation-filters="sRGB">
<feFlood flood-opacity="0" result="feFloodId_1_140"/>
<feColorMatrix in="SourceAlpha" type="matrix" values="0 0 0 0 0 0 0 0 0 0 0 0 0 0 0 0 0 0 127 0" result="hardAlpha_1_140"/>
<feOffset dx="0" dy="2"/>
<feGaussianBlur stdDeviation="2"/>
<feComposite in2="hardAlpha_1_140" operator="out"/>
<feColorMatrix type="matrix" values="0 0 0 0 0 0 0 0 0 0 0 0 0 0 0 0 0 0 0.25 0"/>
<feBlend mode="normal" in2="feFloodId_1_140" result="dropShadow_1_1_140"/>
<feBlend mode="normal" in="SourceGraphic" in2="dropShadow_1_1_140" result="shape_1_140"/>
</filter>
</defs>
</svg>
